<?xml version="1.0" standalone="no"?>
<!DOCTYPE svg PUBLIC "-//W3C//DTD SVG 20010904//EN"
 "http://www.w3.org/TR/2001/REC-SVG-20010904/DTD/svg10.dtd">
<svg version="1.0" xmlns="http://www.w3.org/2000/svg"
 width="468pt" height="514pt" viewBox="0 0 468 514"
 preserveAspectRatio="xMidYMid meet">
<metadata>
Created by potrace 1.8, written by Peter Selinger 2001-2007
</metadata>
<g transform="translate(0,514) scale(0.073354,-0.073354)"
fill="#000000" stroke="none">
<path d="M2950 6379 c-202 -23 -445 -91 -596 -167 -254 -128 -450 -306 -625
-566 -274 -406 -400 -953 -368 -1596 25 -511 141 -903 371 -1252 103 -156 295
-353 437 -447 225 -149 492 -241 790 -272 145 -15 475 -7 596 15 129 24 265
61 369 102 586 231 978 808 1081 1588 21 165 21 725 -1 891 -44 338 -141 639
-286 885 -288 490 -710 758 -1290 820 -112 12 -369 11 -478 -1z m485 -344
c169 -35 312 -113 440 -240 231 -228 350 -536 417 -1075 21 -171 18 -848 -5
-1025 -51 -387 -140 -667 -281 -879 -68 -101 -199 -229 -294 -286 -291 -173
-743 -173 -1034 0 -95 57 -226 185 -294 286 -141 212 -230 492 -281 879 -23
179 -26 853 -5 1030 90 737 329 1139 762 1285 150 51 401 62 575 25z"/>
</g>
</svg>
